<svg width="624" height="143" viewBox="0 0 624 143" fill="none" xmlns="http://www.w3.org/2000/svg" preserveAspectRatio="none slice">
<g clip-path="url(#clip0_385_2)">
<rect width="623.54" height="142.8" fill="black"/>
<path d="M546.945 98.8C547.612 102.667 548.945 105.8 550.945 108.2C553.078 110.467 555.612 112.133 558.545 113.2C561.612 114.133 564.945 114.6 568.545 114.6C574.812 114.6 579.612 113.333 582.945 110.8C586.412 108.133 588.145 104.733 588.145 100.6C588.145 97.2667 587.078 94.6 584.945 92.6C582.945 90.6 580.078 88.9333 576.345 87.6C572.745 86.1333 568.545 84.6667 563.745 83.2C558.412 81.7333 553.012 80.0667 547.545 78.2C542.078 76.2 537.012 73.7333 532.345 70.8C527.678 67.7333 523.945 63.8 521.145 59C518.345 54.2 517.012 48.2 517.145 41C517.145 32.2 519.412 24.7333 523.945 18.6C528.478 12.4667 534.612 7.86666 542.345 4.8C550.078 1.6 558.945 0 568.945 0C578.012 0 586.078 1.33333 593.145 3.99999C600.212 6.66666 606.012 10.6 610.545 15.8C615.212 20.8667 618.478 27.2 620.345 34.8L588.345 40.4C587.812 37.4667 586.612 35.0667 584.745 33.2C582.878 31.3333 580.612 30 577.945 29.2C575.412 28.2667 572.878 27.8 570.345 27.8C567.145 27.8 564.212 28.3333 561.545 29.4C558.878 30.4667 556.678 32 554.945 34C553.345 36 552.545 38.3333 552.545 41C552.545 43.9333 553.478 46.3333 555.345 48.2C557.345 50.0667 560.012 51.7333 563.345 53.2C566.678 54.6667 570.345 56.0667 574.345 57.4C579.812 59.1333 585.412 61 591.145 63C596.878 65 602.212 67.6 607.145 70.8C612.078 73.8667 616.012 77.8667 618.945 82.8C622.012 87.6 623.545 93.6667 623.545 101C623.545 108.867 621.612 115.933 617.745 122.2C613.878 128.467 608.078 133.467 600.345 137.2C592.612 140.933 582.812 142.8 570.945 142.8C560.945 142.8 551.945 141.4 543.945 138.6C536.078 135.667 529.612 131.4 524.545 125.8C519.478 120.2 516.145 113.333 514.545 105.2L546.945 98.8Z" fill="white"/>
<path d="M443.509 0V113.174H504V143H409V0H443.509Z" fill="white"/>
<path d="M332.873 0V113.174H394V143H298V0H332.873Z" fill="white"/>
<path d="M210.696 29.8257H203.705L164.954 143H129L180.135 0H235.265L286 143H250.046L210.696 29.8257ZM166.352 84.5743H247.849V114.4H166.352V84.5743Z" fill="white"/>
<path d="M82.4726 43.1043C82.4726 38.3376 81.0011 34.9329 78.058 32.89C75.115 30.8471 70.901 29.8257 65.4162 29.8257H34.9154V56.3829H65.0149C70.4997 56.3829 74.7805 55.3614 77.8574 53.3186C80.9342 51.1395 82.4726 47.7348 82.4726 43.1043ZM0 143V0H72.4395C82.0713 0 90.2316 1.56619 96.9204 4.69857C103.743 7.83095 108.893 12.2571 112.371 17.9771C115.983 23.561 117.789 30.1662 117.789 37.7929C117.789 44.1938 116.585 49.5733 114.177 53.9314C111.903 58.1533 108.626 61.49 104.345 63.9414C100.198 66.3929 95.382 68.0272 89.8972 68.8443V70.4786C96.586 71.2957 102.205 73.1343 106.753 75.9943C111.435 78.7181 114.98 82.4633 117.388 87.23C119.796 91.8605 121 97.3762 121 103.777C121 111.676 119.194 118.554 115.582 124.41C112.104 130.266 106.887 134.829 99.9303 138.097C93.1078 141.366 84.6799 143 74.6468 143H0ZM34.9154 113.174H68.2255C73.8441 113.174 78.1918 111.949 81.2686 109.497C84.3455 107.046 85.8839 103.437 85.8839 98.67C85.8839 93.7672 84.2786 90.1581 81.068 87.8429C77.8574 85.3914 73.4428 84.1657 67.8242 84.1657H34.9154V113.174Z" fill="white"/>
</g>
<defs>
<clipPath id="clip0_385_2">
<rect width="623.54" height="142.8" fill="white"/>
</clipPath>
</defs>
</svg>